<mxfile host="app.diagrams.net" agent="Mozilla/5.0 (Windows NT 10.0; Win64; x64) AppleWebKit/537.36 (KHTML, like Gecko) Chrome/131.0.0.0 Safari/537.36" version="26.0.4">
  <diagram name="Page-1" id="1X9vgq1OAzsnJBx7NGv9">
    <mxGraphModel dx="5691" dy="3289" grid="0" gridSize="10" guides="1" tooltips="1" connect="1" arrows="1" fold="1" page="1" pageScale="1" pageWidth="1400" pageHeight="850" background="#FFCCCC" math="0" shadow="1">
      <root>
        <mxCell id="0" />
        <mxCell id="1" parent="0" />
        <mxCell id="npr50LHdcgnVswzbZlhl-4" style="edgeStyle=orthogonalEdgeStyle;rounded=0;orthogonalLoop=1;jettySize=auto;html=1;exitX=0.5;exitY=1;exitDx=0;exitDy=0;entryX=0.5;entryY=0;entryDx=0;entryDy=0;fontStyle=1" edge="1" parent="1" source="npr50LHdcgnVswzbZlhl-1" target="npr50LHdcgnVswzbZlhl-3">
          <mxGeometry relative="1" as="geometry" />
        </mxCell>
        <mxCell id="npr50LHdcgnVswzbZlhl-1" value="&lt;font style=&quot;font-size: 22px;&quot;&gt;&lt;span&gt;Start&lt;/span&gt;&lt;/font&gt;" style="ellipse;whiteSpace=wrap;html=1;fillColor=#dae8fc;strokeColor=#6c8ebf;fontStyle=1" vertex="1" parent="1">
          <mxGeometry x="636" y="-914" width="120" height="80" as="geometry" />
        </mxCell>
        <mxCell id="npr50LHdcgnVswzbZlhl-6" value="" style="edgeStyle=orthogonalEdgeStyle;rounded=0;orthogonalLoop=1;jettySize=auto;html=1;fontStyle=1" edge="1" parent="1" source="npr50LHdcgnVswzbZlhl-3">
          <mxGeometry relative="1" as="geometry">
            <mxPoint x="696" y="-684" as="targetPoint" />
          </mxGeometry>
        </mxCell>
        <mxCell id="npr50LHdcgnVswzbZlhl-3" value="&lt;span&gt;Import Employee and&amp;nbsp;&lt;/span&gt;&lt;div&gt;&lt;span&gt;HR detail from File&lt;/span&gt;&lt;/div&gt;" style="rounded=0;whiteSpace=wrap;html=1;fillColor=#d5e8d4;strokeColor=#82b366;fontStyle=1;gradientColor=#97d077;" vertex="1" parent="1">
          <mxGeometry x="586" y="-784" width="220" height="60" as="geometry" />
        </mxCell>
        <mxCell id="npr50LHdcgnVswzbZlhl-8" value="" style="edgeStyle=orthogonalEdgeStyle;rounded=0;orthogonalLoop=1;jettySize=auto;html=1;fontStyle=1" edge="1" parent="1" source="npr50LHdcgnVswzbZlhl-5" target="npr50LHdcgnVswzbZlhl-7">
          <mxGeometry relative="1" as="geometry" />
        </mxCell>
        <mxCell id="npr50LHdcgnVswzbZlhl-11" style="edgeStyle=orthogonalEdgeStyle;rounded=0;orthogonalLoop=1;jettySize=auto;html=1;exitX=0;exitY=0.5;exitDx=0;exitDy=0;fontStyle=1" edge="1" parent="1" source="npr50LHdcgnVswzbZlhl-5" target="npr50LHdcgnVswzbZlhl-9">
          <mxGeometry relative="1" as="geometry" />
        </mxCell>
        <mxCell id="npr50LHdcgnVswzbZlhl-12" style="edgeStyle=orthogonalEdgeStyle;rounded=0;orthogonalLoop=1;jettySize=auto;html=1;exitX=1;exitY=0.5;exitDx=0;exitDy=0;entryX=0.5;entryY=0;entryDx=0;entryDy=0;fontStyle=1" edge="1" parent="1" source="npr50LHdcgnVswzbZlhl-5" target="npr50LHdcgnVswzbZlhl-10">
          <mxGeometry relative="1" as="geometry" />
        </mxCell>
        <mxCell id="npr50LHdcgnVswzbZlhl-5" value="&lt;font style=&quot;font-size: 18px;&quot;&gt;Display Choice&lt;/font&gt;&lt;div&gt;&lt;font size=&quot;3&quot;&gt;1.HR&lt;/font&gt;&lt;/div&gt;&lt;div&gt;&lt;font size=&quot;3&quot;&gt;2.Employee&lt;/font&gt;&lt;/div&gt;&lt;div&gt;&lt;font size=&quot;3&quot;&gt;3.Exit&amp;nbsp;&lt;/font&gt;&lt;/div&gt;" style="rhombus;whiteSpace=wrap;html=1;rounded=0;fontStyle=1;fillColor=#fff2cc;strokeColor=#d6b656;gradientColor=#ffd966;" vertex="1" parent="1">
          <mxGeometry x="605" y="-684" width="186" height="194" as="geometry" />
        </mxCell>
        <mxCell id="npr50LHdcgnVswzbZlhl-152" style="edgeStyle=orthogonalEdgeStyle;rounded=0;orthogonalLoop=1;jettySize=auto;html=1;exitX=1;exitY=0.5;exitDx=0;exitDy=0;fontStyle=1" edge="1" parent="1" source="npr50LHdcgnVswzbZlhl-7" target="npr50LHdcgnVswzbZlhl-151">
          <mxGeometry relative="1" as="geometry" />
        </mxCell>
        <mxCell id="npr50LHdcgnVswzbZlhl-7" value="&lt;font style=&quot;font-size: 18px;&quot;&gt;Exit&lt;/font&gt;" style="whiteSpace=wrap;html=1;rounded=0;fontStyle=1;fillColor=#f5f5f5;gradientColor=#b3b3b3;strokeColor=#666666;" vertex="1" parent="1">
          <mxGeometry x="639" y="-370" width="120" height="60" as="geometry" />
        </mxCell>
        <mxCell id="npr50LHdcgnVswzbZlhl-14" value="" style="edgeStyle=orthogonalEdgeStyle;rounded=0;orthogonalLoop=1;jettySize=auto;html=1;fontStyle=1" edge="1" parent="1" source="npr50LHdcgnVswzbZlhl-9" target="npr50LHdcgnVswzbZlhl-13">
          <mxGeometry relative="1" as="geometry" />
        </mxCell>
        <mxCell id="npr50LHdcgnVswzbZlhl-9" value="&lt;font style=&quot;font-size: 18px;&quot;&gt;HR Login&lt;/font&gt;" style="whiteSpace=wrap;html=1;rounded=0;fontStyle=1;fillColor=#f5f5f5;gradientColor=#b3b3b3;strokeColor=#666666;" vertex="1" parent="1">
          <mxGeometry x="360" y="-370" width="120" height="60" as="geometry" />
        </mxCell>
        <mxCell id="npr50LHdcgnVswzbZlhl-23" style="edgeStyle=orthogonalEdgeStyle;rounded=0;orthogonalLoop=1;jettySize=auto;html=1;exitX=0.5;exitY=1;exitDx=0;exitDy=0;entryX=0.5;entryY=0;entryDx=0;entryDy=0;fontStyle=1" edge="1" parent="1" source="npr50LHdcgnVswzbZlhl-10" target="npr50LHdcgnVswzbZlhl-22">
          <mxGeometry relative="1" as="geometry" />
        </mxCell>
        <mxCell id="npr50LHdcgnVswzbZlhl-10" value="&lt;font style=&quot;font-size: 18px;&quot;&gt;Employee Login&lt;/font&gt;" style="whiteSpace=wrap;html=1;rounded=0;fontStyle=1;fillColor=#f5f5f5;gradientColor=#b3b3b3;strokeColor=#666666;" vertex="1" parent="1">
          <mxGeometry x="940" y="-370" width="120" height="60" as="geometry" />
        </mxCell>
        <mxCell id="npr50LHdcgnVswzbZlhl-16" value="" style="edgeStyle=orthogonalEdgeStyle;rounded=0;orthogonalLoop=1;jettySize=auto;html=1;fontStyle=1" edge="1" parent="1" source="npr50LHdcgnVswzbZlhl-13" target="npr50LHdcgnVswzbZlhl-15">
          <mxGeometry relative="1" as="geometry" />
        </mxCell>
        <mxCell id="npr50LHdcgnVswzbZlhl-17" value="&lt;font style=&quot;font-size: 18px;&quot;&gt;YES&lt;/font&gt;" style="edgeLabel;html=1;align=center;verticalAlign=middle;resizable=0;points=[];fontStyle=1" vertex="1" connectable="0" parent="npr50LHdcgnVswzbZlhl-16">
          <mxGeometry x="-0.2714" y="-5" relative="1" as="geometry">
            <mxPoint y="1" as="offset" />
          </mxGeometry>
        </mxCell>
        <mxCell id="npr50LHdcgnVswzbZlhl-19" value="" style="edgeStyle=orthogonalEdgeStyle;rounded=0;orthogonalLoop=1;jettySize=auto;html=1;fontStyle=1" edge="1" parent="1" source="npr50LHdcgnVswzbZlhl-13" target="npr50LHdcgnVswzbZlhl-18">
          <mxGeometry relative="1" as="geometry" />
        </mxCell>
        <mxCell id="npr50LHdcgnVswzbZlhl-13" value="&lt;font style=&quot;font-size: 18px;&quot;&gt;Check HR ID&lt;/font&gt;&lt;div&gt;&lt;font size=&quot;3&quot;&gt;&amp;amp; Password&lt;/font&gt;&lt;/div&gt;" style="rhombus;whiteSpace=wrap;html=1;rounded=0;fontStyle=1;fillColor=#fff2cc;gradientColor=#ffd966;strokeColor=#d6b656;" vertex="1" parent="1">
          <mxGeometry x="350" y="-250" width="140" height="130" as="geometry" />
        </mxCell>
        <mxCell id="npr50LHdcgnVswzbZlhl-49" style="edgeStyle=orthogonalEdgeStyle;rounded=0;orthogonalLoop=1;jettySize=auto;html=1;exitX=0.5;exitY=1;exitDx=0;exitDy=0;entryX=0.5;entryY=0;entryDx=0;entryDy=0;fontStyle=1;fillColor=#b1ddf0;strokeColor=#10739e;" edge="1" parent="1" source="npr50LHdcgnVswzbZlhl-15" target="npr50LHdcgnVswzbZlhl-38">
          <mxGeometry relative="1" as="geometry" />
        </mxCell>
        <mxCell id="npr50LHdcgnVswzbZlhl-50" style="edgeStyle=orthogonalEdgeStyle;rounded=0;orthogonalLoop=1;jettySize=auto;html=1;exitX=0.5;exitY=1;exitDx=0;exitDy=0;fontStyle=1;fillColor=#b1ddf0;strokeColor=#10739e;" edge="1" parent="1" source="npr50LHdcgnVswzbZlhl-15" target="npr50LHdcgnVswzbZlhl-41">
          <mxGeometry relative="1" as="geometry" />
        </mxCell>
        <mxCell id="npr50LHdcgnVswzbZlhl-52" style="edgeStyle=orthogonalEdgeStyle;rounded=0;orthogonalLoop=1;jettySize=auto;html=1;fontStyle=1;fillColor=#b1ddf0;strokeColor=#10739e;" edge="1" parent="1" source="npr50LHdcgnVswzbZlhl-15" target="npr50LHdcgnVswzbZlhl-37">
          <mxGeometry relative="1" as="geometry" />
        </mxCell>
        <mxCell id="npr50LHdcgnVswzbZlhl-53" style="edgeStyle=orthogonalEdgeStyle;rounded=0;orthogonalLoop=1;jettySize=auto;html=1;exitX=0.5;exitY=1;exitDx=0;exitDy=0;fontStyle=1;fillColor=#b1ddf0;strokeColor=#10739e;" edge="1" parent="1" source="npr50LHdcgnVswzbZlhl-15" target="npr50LHdcgnVswzbZlhl-36">
          <mxGeometry relative="1" as="geometry" />
        </mxCell>
        <mxCell id="npr50LHdcgnVswzbZlhl-54" style="edgeStyle=orthogonalEdgeStyle;rounded=0;orthogonalLoop=1;jettySize=auto;html=1;exitX=0.5;exitY=1;exitDx=0;exitDy=0;entryX=0.5;entryY=0;entryDx=0;entryDy=0;fontStyle=1;fillColor=#b1ddf0;strokeColor=#10739e;" edge="1" parent="1" source="npr50LHdcgnVswzbZlhl-15" target="npr50LHdcgnVswzbZlhl-35">
          <mxGeometry relative="1" as="geometry" />
        </mxCell>
        <mxCell id="npr50LHdcgnVswzbZlhl-57" style="edgeStyle=orthogonalEdgeStyle;rounded=0;orthogonalLoop=1;jettySize=auto;html=1;exitX=0.5;exitY=1;exitDx=0;exitDy=0;entryX=0.5;entryY=0;entryDx=0;entryDy=0;fontStyle=1;fillColor=#b1ddf0;strokeColor=#10739e;" edge="1" parent="1" source="npr50LHdcgnVswzbZlhl-15" target="npr50LHdcgnVswzbZlhl-42">
          <mxGeometry relative="1" as="geometry" />
        </mxCell>
        <mxCell id="npr50LHdcgnVswzbZlhl-15" value="&lt;font style=&quot;font-size: 18px;&quot;&gt;HR Menu&lt;/font&gt;" style="rhombus;whiteSpace=wrap;html=1;rounded=0;fontStyle=1;fillColor=#fff2cc;gradientColor=#ffd966;strokeColor=#d6b656;" vertex="1" parent="1">
          <mxGeometry x="370" y="-40" width="100" height="110" as="geometry" />
        </mxCell>
        <mxCell id="npr50LHdcgnVswzbZlhl-18" value="&lt;font style=&quot;font-size: 18px;&quot;&gt;Display Error&lt;/font&gt;" style="whiteSpace=wrap;html=1;rounded=0;fontStyle=1;fillColor=#d5e8d4;gradientColor=#97d077;strokeColor=#82b366;" vertex="1" parent="1">
          <mxGeometry x="580" y="-215" width="120" height="60" as="geometry" />
        </mxCell>
        <mxCell id="npr50LHdcgnVswzbZlhl-25" value="" style="edgeStyle=orthogonalEdgeStyle;rounded=0;orthogonalLoop=1;jettySize=auto;html=1;fontStyle=1" edge="1" parent="1" source="npr50LHdcgnVswzbZlhl-22" target="npr50LHdcgnVswzbZlhl-24">
          <mxGeometry relative="1" as="geometry" />
        </mxCell>
        <mxCell id="npr50LHdcgnVswzbZlhl-22" value="&lt;font style=&quot;font-size: 18px;&quot;&gt;Employee ID&lt;/font&gt;&lt;div&gt;&lt;font size=&quot;3&quot;&gt;&amp;amp; Password&lt;/font&gt;&lt;/div&gt;" style="shape=parallelogram;perimeter=parallelogramPerimeter;whiteSpace=wrap;html=1;fixedSize=1;fontStyle=1;fillColor=#ffcd28;gradientColor=#ffa500;strokeColor=#d79b00;" vertex="1" parent="1">
          <mxGeometry x="940" y="-250" width="120" height="60" as="geometry" />
        </mxCell>
        <mxCell id="npr50LHdcgnVswzbZlhl-29" value="" style="edgeStyle=orthogonalEdgeStyle;rounded=0;orthogonalLoop=1;jettySize=auto;html=1;fontStyle=1" edge="1" parent="1" source="npr50LHdcgnVswzbZlhl-24" target="npr50LHdcgnVswzbZlhl-28">
          <mxGeometry relative="1" as="geometry" />
        </mxCell>
        <mxCell id="npr50LHdcgnVswzbZlhl-30" value="&lt;font style=&quot;font-size: 18px;&quot;&gt;YES&lt;/font&gt;" style="edgeLabel;html=1;align=center;verticalAlign=middle;resizable=0;points=[];fontStyle=1" vertex="1" connectable="0" parent="npr50LHdcgnVswzbZlhl-29">
          <mxGeometry x="-0.2" y="2" relative="1" as="geometry">
            <mxPoint y="1" as="offset" />
          </mxGeometry>
        </mxCell>
        <mxCell id="npr50LHdcgnVswzbZlhl-32" style="edgeStyle=orthogonalEdgeStyle;rounded=0;orthogonalLoop=1;jettySize=auto;html=1;exitX=1;exitY=0.5;exitDx=0;exitDy=0;entryX=0;entryY=0.5;entryDx=0;entryDy=0;fontStyle=1" edge="1" parent="1" source="npr50LHdcgnVswzbZlhl-24" target="npr50LHdcgnVswzbZlhl-31">
          <mxGeometry relative="1" as="geometry" />
        </mxCell>
        <mxCell id="npr50LHdcgnVswzbZlhl-24" value="&lt;font style=&quot;font-size: 14px;&quot;&gt;IF TRUE&amp;nbsp;&lt;/font&gt;&lt;div&gt;&lt;font size=&quot;3&quot;&gt;ID and Password&lt;/font&gt;&lt;/div&gt;" style="rhombus;whiteSpace=wrap;html=1;fontStyle=1;fillColor=#fff2cc;gradientColor=#ffd966;strokeColor=#d6b656;" vertex="1" parent="1">
          <mxGeometry x="943.5" y="-159" width="113" height="119" as="geometry" />
        </mxCell>
        <mxCell id="npr50LHdcgnVswzbZlhl-62" style="edgeStyle=orthogonalEdgeStyle;rounded=0;orthogonalLoop=1;jettySize=auto;html=1;exitX=0.5;exitY=1;exitDx=0;exitDy=0;entryX=0.5;entryY=0;entryDx=0;entryDy=0;fontStyle=1" edge="1" parent="1" source="npr50LHdcgnVswzbZlhl-28" target="npr50LHdcgnVswzbZlhl-58">
          <mxGeometry relative="1" as="geometry" />
        </mxCell>
        <mxCell id="npr50LHdcgnVswzbZlhl-64" style="edgeStyle=orthogonalEdgeStyle;rounded=0;orthogonalLoop=1;jettySize=auto;html=1;exitX=0.5;exitY=1;exitDx=0;exitDy=0;fontStyle=1" edge="1" parent="1" source="npr50LHdcgnVswzbZlhl-28" target="npr50LHdcgnVswzbZlhl-59">
          <mxGeometry relative="1" as="geometry" />
        </mxCell>
        <mxCell id="npr50LHdcgnVswzbZlhl-65" style="edgeStyle=orthogonalEdgeStyle;rounded=0;orthogonalLoop=1;jettySize=auto;html=1;exitX=0.5;exitY=1;exitDx=0;exitDy=0;entryX=0.5;entryY=0;entryDx=0;entryDy=0;fontStyle=1" edge="1" parent="1" source="npr50LHdcgnVswzbZlhl-28" target="npr50LHdcgnVswzbZlhl-61">
          <mxGeometry relative="1" as="geometry" />
        </mxCell>
        <mxCell id="npr50LHdcgnVswzbZlhl-66" style="edgeStyle=orthogonalEdgeStyle;rounded=0;orthogonalLoop=1;jettySize=auto;html=1;exitX=0.5;exitY=1;exitDx=0;exitDy=0;entryX=0.5;entryY=0;entryDx=0;entryDy=0;fontStyle=1" edge="1" parent="1" source="npr50LHdcgnVswzbZlhl-28" target="npr50LHdcgnVswzbZlhl-60">
          <mxGeometry relative="1" as="geometry" />
        </mxCell>
        <mxCell id="npr50LHdcgnVswzbZlhl-28" value="Employee Menu" style="rhombus;whiteSpace=wrap;html=1;fontStyle=1;fillColor=#fff2cc;gradientColor=#ffd966;strokeColor=#d6b656;" vertex="1" parent="1">
          <mxGeometry x="960" y="40" width="80" height="80" as="geometry" />
        </mxCell>
        <mxCell id="npr50LHdcgnVswzbZlhl-33" style="edgeStyle=orthogonalEdgeStyle;rounded=0;orthogonalLoop=1;jettySize=auto;html=1;exitX=0.5;exitY=0;exitDx=0;exitDy=0;fontStyle=1" edge="1" parent="1" source="npr50LHdcgnVswzbZlhl-31" target="npr50LHdcgnVswzbZlhl-5">
          <mxGeometry relative="1" as="geometry">
            <Array as="points">
              <mxPoint x="1200" y="-600" />
            </Array>
          </mxGeometry>
        </mxCell>
        <mxCell id="npr50LHdcgnVswzbZlhl-34" value="&lt;font style=&quot;font-size: 18px;&quot;&gt;Attempt Left&lt;/font&gt;" style="edgeLabel;html=1;align=center;verticalAlign=middle;resizable=0;points=[];fontStyle=1" vertex="1" connectable="0" parent="npr50LHdcgnVswzbZlhl-33">
          <mxGeometry x="-0.44" y="-6" relative="1" as="geometry">
            <mxPoint as="offset" />
          </mxGeometry>
        </mxCell>
        <mxCell id="npr50LHdcgnVswzbZlhl-31" value="&lt;font style=&quot;font-size: 18px;&quot;&gt;Display Error&lt;/font&gt;" style="whiteSpace=wrap;html=1;rounded=0;fontStyle=1;fillColor=#d5e8d4;gradientColor=#97d077;strokeColor=#82b366;" vertex="1" parent="1">
          <mxGeometry x="1140" y="-110" width="120" height="60" as="geometry" />
        </mxCell>
        <mxCell id="npr50LHdcgnVswzbZlhl-70" style="edgeStyle=orthogonalEdgeStyle;rounded=0;orthogonalLoop=1;jettySize=auto;html=1;exitX=0.5;exitY=1;exitDx=0;exitDy=0;fontStyle=1" edge="1" parent="1" source="npr50LHdcgnVswzbZlhl-35" target="npr50LHdcgnVswzbZlhl-69">
          <mxGeometry relative="1" as="geometry" />
        </mxCell>
        <mxCell id="npr50LHdcgnVswzbZlhl-35" value="&lt;font style=&quot;font-size: 18px;&quot;&gt;Delete Employee&lt;/font&gt;" style="whiteSpace=wrap;html=1;rounded=0;fontStyle=1;fillColor=#b1ddf0;strokeColor=#10739e;" vertex="1" parent="1">
          <mxGeometry x="-40" y="120" width="120" height="60" as="geometry" />
        </mxCell>
        <mxCell id="npr50LHdcgnVswzbZlhl-36" value="&lt;font style=&quot;font-size: 18px;&quot;&gt;View All Employee&lt;/font&gt;" style="whiteSpace=wrap;html=1;rounded=0;fontStyle=1;fillColor=#b1ddf0;strokeColor=#10739e;" vertex="1" parent="1">
          <mxGeometry x="130" y="120" width="120" height="60" as="geometry" />
        </mxCell>
        <mxCell id="npr50LHdcgnVswzbZlhl-80" style="edgeStyle=orthogonalEdgeStyle;rounded=0;orthogonalLoop=1;jettySize=auto;html=1;exitX=0.5;exitY=1;exitDx=0;exitDy=0;entryX=0.5;entryY=0;entryDx=0;entryDy=0;fontStyle=1" edge="1" parent="1" source="npr50LHdcgnVswzbZlhl-37" target="npr50LHdcgnVswzbZlhl-77">
          <mxGeometry relative="1" as="geometry" />
        </mxCell>
        <mxCell id="npr50LHdcgnVswzbZlhl-81" style="edgeStyle=orthogonalEdgeStyle;rounded=0;orthogonalLoop=1;jettySize=auto;html=1;exitX=0.5;exitY=1;exitDx=0;exitDy=0;entryX=0.5;entryY=0;entryDx=0;entryDy=0;fontStyle=1" edge="1" parent="1" source="npr50LHdcgnVswzbZlhl-37" target="npr50LHdcgnVswzbZlhl-79">
          <mxGeometry relative="1" as="geometry" />
        </mxCell>
        <mxCell id="npr50LHdcgnVswzbZlhl-82" style="edgeStyle=orthogonalEdgeStyle;rounded=0;orthogonalLoop=1;jettySize=auto;html=1;exitX=0.5;exitY=1;exitDx=0;exitDy=0;entryX=0.5;entryY=0;entryDx=0;entryDy=0;fontStyle=1" edge="1" parent="1" source="npr50LHdcgnVswzbZlhl-37" target="npr50LHdcgnVswzbZlhl-78">
          <mxGeometry relative="1" as="geometry" />
        </mxCell>
        <mxCell id="npr50LHdcgnVswzbZlhl-37" value="&lt;font style=&quot;font-size: 18px;&quot;&gt;Search Employee&lt;/font&gt;" style="whiteSpace=wrap;html=1;rounded=0;fontStyle=1;fillColor=#b1ddf0;strokeColor=#10739e;" vertex="1" parent="1">
          <mxGeometry x="290" y="120" width="120" height="60" as="geometry" />
        </mxCell>
        <mxCell id="npr50LHdcgnVswzbZlhl-38" value="&lt;font style=&quot;font-size: 18px;&quot;&gt;Modify Employee&lt;/font&gt;" style="whiteSpace=wrap;html=1;rounded=0;fontStyle=1;fillColor=#b1ddf0;strokeColor=#10739e;" vertex="1" parent="1">
          <mxGeometry x="480" y="120" width="120" height="60" as="geometry" />
        </mxCell>
        <mxCell id="npr50LHdcgnVswzbZlhl-67" style="edgeStyle=orthogonalEdgeStyle;rounded=0;orthogonalLoop=1;jettySize=auto;html=1;exitX=1;exitY=0.5;exitDx=0;exitDy=0;entryX=1;entryY=0.5;entryDx=0;entryDy=0;fontStyle=1" edge="1" parent="1" source="npr50LHdcgnVswzbZlhl-41" target="npr50LHdcgnVswzbZlhl-15">
          <mxGeometry relative="1" as="geometry" />
        </mxCell>
        <mxCell id="npr50LHdcgnVswzbZlhl-41" value="&lt;font style=&quot;font-size: 18px;&quot;&gt;Exit&lt;/font&gt;" style="whiteSpace=wrap;html=1;rounded=0;fontStyle=1;fillColor=#b1ddf0;strokeColor=#10739e;" vertex="1" parent="1">
          <mxGeometry x="650" y="120" width="120" height="60" as="geometry" />
        </mxCell>
        <mxCell id="npr50LHdcgnVswzbZlhl-120" style="edgeStyle=orthogonalEdgeStyle;rounded=0;orthogonalLoop=1;jettySize=auto;html=1;exitX=0;exitY=0.5;exitDx=0;exitDy=0;entryX=1;entryY=0.75;entryDx=0;entryDy=0;fontStyle=1" edge="1" parent="1" source="npr50LHdcgnVswzbZlhl-42" target="npr50LHdcgnVswzbZlhl-114">
          <mxGeometry relative="1" as="geometry">
            <Array as="points">
              <mxPoint x="-280" y="150" />
              <mxPoint x="-280" y="274" />
            </Array>
          </mxGeometry>
        </mxCell>
        <mxCell id="npr50LHdcgnVswzbZlhl-121" style="edgeStyle=orthogonalEdgeStyle;rounded=0;orthogonalLoop=1;jettySize=auto;html=1;entryX=1;entryY=0.5;entryDx=0;entryDy=0;fontStyle=1" edge="1" parent="1" source="npr50LHdcgnVswzbZlhl-42" target="npr50LHdcgnVswzbZlhl-115">
          <mxGeometry relative="1" as="geometry">
            <Array as="points">
              <mxPoint x="-280" y="150" />
              <mxPoint x="-280" y="367" />
            </Array>
          </mxGeometry>
        </mxCell>
        <mxCell id="npr50LHdcgnVswzbZlhl-122" style="edgeStyle=orthogonalEdgeStyle;rounded=0;orthogonalLoop=1;jettySize=auto;html=1;exitX=0;exitY=0.5;exitDx=0;exitDy=0;entryX=1;entryY=0.5;entryDx=0;entryDy=0;fontStyle=1" edge="1" parent="1" source="npr50LHdcgnVswzbZlhl-42" target="npr50LHdcgnVswzbZlhl-116">
          <mxGeometry relative="1" as="geometry">
            <Array as="points">
              <mxPoint x="-280" y="150" />
              <mxPoint x="-280" y="477" />
            </Array>
          </mxGeometry>
        </mxCell>
        <mxCell id="npr50LHdcgnVswzbZlhl-123" style="edgeStyle=orthogonalEdgeStyle;rounded=0;orthogonalLoop=1;jettySize=auto;html=1;exitX=0;exitY=0.5;exitDx=0;exitDy=0;entryX=1;entryY=0.5;entryDx=0;entryDy=0;fontStyle=1" edge="1" parent="1" source="npr50LHdcgnVswzbZlhl-42" target="npr50LHdcgnVswzbZlhl-117">
          <mxGeometry relative="1" as="geometry">
            <Array as="points">
              <mxPoint x="-280" y="150" />
              <mxPoint x="-280" y="597" />
            </Array>
          </mxGeometry>
        </mxCell>
        <mxCell id="npr50LHdcgnVswzbZlhl-124" style="edgeStyle=orthogonalEdgeStyle;rounded=0;orthogonalLoop=1;jettySize=auto;html=1;exitX=0;exitY=0.5;exitDx=0;exitDy=0;entryX=1;entryY=0.5;entryDx=0;entryDy=0;fontStyle=1" edge="1" parent="1" source="npr50LHdcgnVswzbZlhl-42" target="npr50LHdcgnVswzbZlhl-113">
          <mxGeometry relative="1" as="geometry" />
        </mxCell>
        <mxCell id="npr50LHdcgnVswzbZlhl-125" style="edgeStyle=orthogonalEdgeStyle;rounded=0;orthogonalLoop=1;jettySize=auto;html=1;exitX=0;exitY=0.25;exitDx=0;exitDy=0;entryX=1;entryY=0.5;entryDx=0;entryDy=0;fontStyle=1" edge="1" parent="1" source="npr50LHdcgnVswzbZlhl-42" target="npr50LHdcgnVswzbZlhl-112">
          <mxGeometry relative="1" as="geometry">
            <Array as="points">
              <mxPoint x="-210" y="150" />
              <mxPoint x="-280" y="150" />
              <mxPoint x="-280" y="37" />
            </Array>
          </mxGeometry>
        </mxCell>
        <mxCell id="npr50LHdcgnVswzbZlhl-127" style="edgeStyle=orthogonalEdgeStyle;rounded=0;orthogonalLoop=1;jettySize=auto;html=1;entryX=1;entryY=0.5;entryDx=0;entryDy=0;fontStyle=1" edge="1" parent="1" source="npr50LHdcgnVswzbZlhl-42" target="npr50LHdcgnVswzbZlhl-111">
          <mxGeometry relative="1" as="geometry">
            <Array as="points">
              <mxPoint x="-280" y="150" />
              <mxPoint x="-280" y="-73" />
            </Array>
          </mxGeometry>
        </mxCell>
        <mxCell id="npr50LHdcgnVswzbZlhl-128" style="edgeStyle=orthogonalEdgeStyle;rounded=0;orthogonalLoop=1;jettySize=auto;html=1;entryX=1;entryY=0.5;entryDx=0;entryDy=0;fontStyle=1" edge="1" parent="1" source="npr50LHdcgnVswzbZlhl-42" target="npr50LHdcgnVswzbZlhl-110">
          <mxGeometry relative="1" as="geometry">
            <Array as="points">
              <mxPoint x="-280" y="150" />
              <mxPoint x="-280" y="-183" />
            </Array>
          </mxGeometry>
        </mxCell>
        <mxCell id="npr50LHdcgnVswzbZlhl-42" value="&lt;font style=&quot;font-size: 18px;&quot;&gt;Add Employee&lt;/font&gt;" style="whiteSpace=wrap;html=1;rounded=0;fontStyle=1;fillColor=#b1ddf0;strokeColor=#10739e;" vertex="1" parent="1">
          <mxGeometry x="-210" y="120" width="120" height="60" as="geometry" />
        </mxCell>
        <mxCell id="npr50LHdcgnVswzbZlhl-58" value="&lt;font style=&quot;font-size: 18px;&quot;&gt;View All Employee&lt;/font&gt;" style="whiteSpace=wrap;html=1;rounded=0;fontStyle=1;fillColor=#b1ddf0;strokeColor=#10739e;" vertex="1" parent="1">
          <mxGeometry x="860" y="160" width="120" height="60" as="geometry" />
        </mxCell>
        <mxCell id="npr50LHdcgnVswzbZlhl-59" value="&lt;font style=&quot;font-size: 18px;&quot;&gt;Search Employee&lt;/font&gt;" style="whiteSpace=wrap;html=1;rounded=0;fontStyle=1;fillColor=#b1ddf0;strokeColor=#10739e;" vertex="1" parent="1">
          <mxGeometry x="1060" y="160" width="120" height="60" as="geometry" />
        </mxCell>
        <mxCell id="npr50LHdcgnVswzbZlhl-68" style="edgeStyle=orthogonalEdgeStyle;rounded=0;orthogonalLoop=1;jettySize=auto;html=1;exitX=1;exitY=0.25;exitDx=0;exitDy=0;entryX=1;entryY=0.5;entryDx=0;entryDy=0;fontStyle=1" edge="1" parent="1" source="npr50LHdcgnVswzbZlhl-60" target="npr50LHdcgnVswzbZlhl-28">
          <mxGeometry relative="1" as="geometry" />
        </mxCell>
        <mxCell id="npr50LHdcgnVswzbZlhl-60" value="&lt;font style=&quot;font-size: 18px;&quot;&gt;Exit&lt;/font&gt;" style="whiteSpace=wrap;html=1;rounded=0;fontStyle=1;fillColor=#b1ddf0;strokeColor=#10739e;" vertex="1" parent="1">
          <mxGeometry x="1420" y="160" width="120" height="60" as="geometry" />
        </mxCell>
        <mxCell id="npr50LHdcgnVswzbZlhl-96" value="" style="edgeStyle=orthogonalEdgeStyle;rounded=0;orthogonalLoop=1;jettySize=auto;html=1;fontStyle=1" edge="1" parent="1" source="npr50LHdcgnVswzbZlhl-61" target="npr50LHdcgnVswzbZlhl-95">
          <mxGeometry relative="1" as="geometry" />
        </mxCell>
        <mxCell id="npr50LHdcgnVswzbZlhl-61" value="&lt;font style=&quot;font-size: 18px;&quot;&gt;Modify Profile&lt;/font&gt;" style="whiteSpace=wrap;html=1;rounded=0;fontStyle=1;fillColor=#b1ddf0;strokeColor=#10739e;" vertex="1" parent="1">
          <mxGeometry x="1240" y="160" width="120" height="60" as="geometry" />
        </mxCell>
        <mxCell id="npr50LHdcgnVswzbZlhl-72" value="" style="edgeStyle=orthogonalEdgeStyle;rounded=0;orthogonalLoop=1;jettySize=auto;html=1;fontStyle=1" edge="1" parent="1" source="npr50LHdcgnVswzbZlhl-69" target="npr50LHdcgnVswzbZlhl-71">
          <mxGeometry relative="1" as="geometry" />
        </mxCell>
        <mxCell id="npr50LHdcgnVswzbZlhl-69" value="&lt;font style=&quot;font-size: 18px;&quot;&gt;Enter ID&lt;/font&gt;" style="shape=parallelogram;perimeter=parallelogramPerimeter;whiteSpace=wrap;html=1;fixedSize=1;fontStyle=1;fillColor=#e3c800;fontColor=#000000;strokeColor=#B09500;" vertex="1" parent="1">
          <mxGeometry x="-40" y="240" width="120" height="60" as="geometry" />
        </mxCell>
        <mxCell id="npr50LHdcgnVswzbZlhl-74" value="" style="edgeStyle=orthogonalEdgeStyle;rounded=0;orthogonalLoop=1;jettySize=auto;html=1;fontStyle=1" edge="1" parent="1" source="npr50LHdcgnVswzbZlhl-71" target="npr50LHdcgnVswzbZlhl-73">
          <mxGeometry relative="1" as="geometry" />
        </mxCell>
        <mxCell id="npr50LHdcgnVswzbZlhl-75" value="&lt;font style=&quot;font-size: 18px;&quot;&gt;YES&lt;/font&gt;" style="edgeLabel;html=1;align=center;verticalAlign=middle;resizable=0;points=[];fontStyle=1" vertex="1" connectable="0" parent="npr50LHdcgnVswzbZlhl-74">
          <mxGeometry x="-0.0974" relative="1" as="geometry">
            <mxPoint as="offset" />
          </mxGeometry>
        </mxCell>
        <mxCell id="npr50LHdcgnVswzbZlhl-76" style="edgeStyle=orthogonalEdgeStyle;rounded=0;orthogonalLoop=1;jettySize=auto;html=1;entryX=0;entryY=0.5;entryDx=0;entryDy=0;fontStyle=1" edge="1" parent="1" source="npr50LHdcgnVswzbZlhl-71" target="npr50LHdcgnVswzbZlhl-15">
          <mxGeometry relative="1" as="geometry">
            <Array as="points">
              <mxPoint x="100" y="410" />
              <mxPoint x="100" y="15" />
            </Array>
          </mxGeometry>
        </mxCell>
        <mxCell id="npr50LHdcgnVswzbZlhl-71" value="Valid ID" style="rhombus;whiteSpace=wrap;html=1;fontStyle=1;fillColor=#fff2cc;gradientColor=#ffd966;strokeColor=#d6b656;" vertex="1" parent="1">
          <mxGeometry x="-20" y="370" width="80" height="80" as="geometry" />
        </mxCell>
        <mxCell id="npr50LHdcgnVswzbZlhl-73" value="&lt;font style=&quot;font-size: 18px;&quot;&gt;Delete Employee&lt;/font&gt;" style="whiteSpace=wrap;html=1;fontStyle=1;fillColor=#fad7ac;strokeColor=#b46504;" vertex="1" parent="1">
          <mxGeometry x="-40" y="510" width="120" height="60" as="geometry" />
        </mxCell>
        <mxCell id="npr50LHdcgnVswzbZlhl-86" style="edgeStyle=orthogonalEdgeStyle;rounded=0;orthogonalLoop=1;jettySize=auto;html=1;exitX=0.5;exitY=1;exitDx=0;exitDy=0;entryX=0;entryY=0;entryDx=0;entryDy=0;fontStyle=1" edge="1" parent="1" source="npr50LHdcgnVswzbZlhl-77" target="npr50LHdcgnVswzbZlhl-83">
          <mxGeometry relative="1" as="geometry">
            <Array as="points">
              <mxPoint x="200" y="395" />
            </Array>
          </mxGeometry>
        </mxCell>
        <mxCell id="npr50LHdcgnVswzbZlhl-77" value="&lt;font style=&quot;font-size: 24px;&quot;&gt;ID&lt;/font&gt;" style="whiteSpace=wrap;html=1;rounded=0;fontStyle=1;fillColor=#d5e8d4;gradientColor=#97d077;strokeColor=#82b366;" vertex="1" parent="1">
          <mxGeometry x="140" y="240" width="120" height="60" as="geometry" />
        </mxCell>
        <mxCell id="npr50LHdcgnVswzbZlhl-84" value="" style="edgeStyle=orthogonalEdgeStyle;rounded=0;orthogonalLoop=1;jettySize=auto;html=1;fontStyle=1" edge="1" parent="1" source="npr50LHdcgnVswzbZlhl-78" target="npr50LHdcgnVswzbZlhl-83">
          <mxGeometry relative="1" as="geometry" />
        </mxCell>
        <mxCell id="npr50LHdcgnVswzbZlhl-78" value="&lt;font style=&quot;font-size: 18px;&quot;&gt;Salary&lt;/font&gt;" style="whiteSpace=wrap;html=1;rounded=0;fontStyle=1;fillColor=#d5e8d4;gradientColor=#97d077;strokeColor=#82b366;" vertex="1" parent="1">
          <mxGeometry x="300" y="240" width="120" height="60" as="geometry" />
        </mxCell>
        <mxCell id="npr50LHdcgnVswzbZlhl-88" style="edgeStyle=orthogonalEdgeStyle;rounded=0;orthogonalLoop=1;jettySize=auto;html=1;entryX=1;entryY=0.5;entryDx=0;entryDy=0;fontStyle=1" edge="1" parent="1" source="npr50LHdcgnVswzbZlhl-79" target="npr50LHdcgnVswzbZlhl-83">
          <mxGeometry relative="1" as="geometry">
            <Array as="points">
              <mxPoint x="510" y="420" />
            </Array>
          </mxGeometry>
        </mxCell>
        <mxCell id="npr50LHdcgnVswzbZlhl-79" value="&lt;font style=&quot;font-size: 18px;&quot;&gt;Experience&lt;/font&gt;" style="whiteSpace=wrap;html=1;rounded=0;fontStyle=1;fillColor=#d5e8d4;gradientColor=#97d077;strokeColor=#82b366;" vertex="1" parent="1">
          <mxGeometry x="450" y="240" width="120" height="60" as="geometry" />
        </mxCell>
        <mxCell id="npr50LHdcgnVswzbZlhl-90" value="" style="edgeStyle=orthogonalEdgeStyle;rounded=0;orthogonalLoop=1;jettySize=auto;html=1;fontStyle=1" edge="1" parent="1" source="npr50LHdcgnVswzbZlhl-83" target="npr50LHdcgnVswzbZlhl-89">
          <mxGeometry relative="1" as="geometry" />
        </mxCell>
        <mxCell id="npr50LHdcgnVswzbZlhl-91" value="&lt;font style=&quot;font-size: 18px;&quot;&gt;YES&lt;/font&gt;" style="edgeLabel;html=1;align=center;verticalAlign=middle;resizable=0;points=[];fontStyle=1" vertex="1" connectable="0" parent="npr50LHdcgnVswzbZlhl-90">
          <mxGeometry x="-0.1421" y="1" relative="1" as="geometry">
            <mxPoint as="offset" />
          </mxGeometry>
        </mxCell>
        <mxCell id="npr50LHdcgnVswzbZlhl-92" style="edgeStyle=orthogonalEdgeStyle;rounded=0;orthogonalLoop=1;jettySize=auto;html=1;entryX=0;entryY=0.5;entryDx=0;entryDy=0;fontStyle=1" edge="1" parent="1" source="npr50LHdcgnVswzbZlhl-83" target="npr50LHdcgnVswzbZlhl-15">
          <mxGeometry relative="1" as="geometry">
            <Array as="points">
              <mxPoint x="100" y="420" />
              <mxPoint x="100" y="15" />
            </Array>
          </mxGeometry>
        </mxCell>
        <mxCell id="npr50LHdcgnVswzbZlhl-93" value="&lt;font style=&quot;font-size: 18px;&quot;&gt;NO&lt;/font&gt;" style="edgeLabel;html=1;align=center;verticalAlign=middle;resizable=0;points=[];fontStyle=1" vertex="1" connectable="0" parent="npr50LHdcgnVswzbZlhl-92">
          <mxGeometry x="-0.809" y="8" relative="1" as="geometry">
            <mxPoint as="offset" />
          </mxGeometry>
        </mxCell>
        <mxCell id="npr50LHdcgnVswzbZlhl-94" value="&lt;font style=&quot;font-size: 18px;&quot;&gt;NO&lt;/font&gt;" style="edgeLabel;html=1;align=center;verticalAlign=middle;resizable=0;points=[];fontStyle=1" vertex="1" connectable="0" parent="npr50LHdcgnVswzbZlhl-92">
          <mxGeometry x="-0.334" y="-3" relative="1" as="geometry">
            <mxPoint as="offset" />
          </mxGeometry>
        </mxCell>
        <mxCell id="npr50LHdcgnVswzbZlhl-83" value="&lt;font style=&quot;font-size: 14px;&quot;&gt;If Valid&amp;nbsp; ID , Salary&amp;nbsp;&lt;/font&gt;&lt;div&gt;&lt;font size=&quot;3&quot;&gt;or Experience&lt;/font&gt;&lt;/div&gt;" style="rhombus;whiteSpace=wrap;html=1;rounded=0;fontStyle=1;fillColor=#fff2cc;gradientColor=#ffd966;strokeColor=#d6b656;" vertex="1" parent="1">
          <mxGeometry x="285" y="370" width="150" height="100" as="geometry" />
        </mxCell>
        <mxCell id="npr50LHdcgnVswzbZlhl-89" value="&lt;font style=&quot;font-size: 18px;&quot;&gt;Show Result&lt;/font&gt;" style="whiteSpace=wrap;html=1;rounded=0;fontStyle=1;fillColor=#fad7ac;strokeColor=#b46504;" vertex="1" parent="1">
          <mxGeometry x="300" y="557" width="120" height="60" as="geometry" />
        </mxCell>
        <mxCell id="npr50LHdcgnVswzbZlhl-100" value="" style="edgeStyle=orthogonalEdgeStyle;rounded=0;orthogonalLoop=1;jettySize=auto;html=1;fontStyle=1" edge="1" parent="1" source="npr50LHdcgnVswzbZlhl-95">
          <mxGeometry relative="1" as="geometry">
            <mxPoint x="1380" y="485" as="targetPoint" />
            <Array as="points">
              <mxPoint x="1300" y="440" />
              <mxPoint x="1381" y="440" />
              <mxPoint x="1381" y="485" />
            </Array>
          </mxGeometry>
        </mxCell>
        <mxCell id="npr50LHdcgnVswzbZlhl-106" style="edgeStyle=orthogonalEdgeStyle;rounded=0;orthogonalLoop=1;jettySize=auto;html=1;fontStyle=1" edge="1" parent="1" source="npr50LHdcgnVswzbZlhl-95" target="npr50LHdcgnVswzbZlhl-103">
          <mxGeometry relative="1" as="geometry" />
        </mxCell>
        <mxCell id="npr50LHdcgnVswzbZlhl-95" value="&lt;font style=&quot;font-size: 18px;&quot;&gt;Modify By&lt;/font&gt;" style="rhombus;whiteSpace=wrap;html=1;rounded=0;fontStyle=1;fillColor=#fff2cc;gradientColor=#ffd966;strokeColor=#d6b656;" vertex="1" parent="1">
          <mxGeometry x="1212.5" y="300" width="175" height="90" as="geometry" />
        </mxCell>
        <mxCell id="npr50LHdcgnVswzbZlhl-109" style="edgeStyle=orthogonalEdgeStyle;rounded=0;orthogonalLoop=1;jettySize=auto;html=1;entryX=1;entryY=0.5;entryDx=0;entryDy=0;fontStyle=1" edge="1" parent="1" source="npr50LHdcgnVswzbZlhl-101" target="npr50LHdcgnVswzbZlhl-28">
          <mxGeometry relative="1" as="geometry">
            <mxPoint x="1440" y="-646.4000244140625" as="targetPoint" />
            <Array as="points">
              <mxPoint x="1620" y="655" />
              <mxPoint x="1620" y="60" />
              <mxPoint x="1040" y="60" />
            </Array>
          </mxGeometry>
        </mxCell>
        <mxCell id="npr50LHdcgnVswzbZlhl-101" value="&lt;font style=&quot;font-size: 18px;&quot;&gt;Save Changes&lt;/font&gt;" style="whiteSpace=wrap;html=1;rounded=0;fontStyle=1;fillColor=#fad7ac;strokeColor=#b46504;" vertex="1" parent="1">
          <mxGeometry x="1250" y="625" width="120" height="60" as="geometry" />
        </mxCell>
        <mxCell id="npr50LHdcgnVswzbZlhl-107" style="edgeStyle=orthogonalEdgeStyle;rounded=0;orthogonalLoop=1;jettySize=auto;html=1;fontStyle=1" edge="1" parent="1" source="npr50LHdcgnVswzbZlhl-103" target="npr50LHdcgnVswzbZlhl-101">
          <mxGeometry relative="1" as="geometry" />
        </mxCell>
        <mxCell id="npr50LHdcgnVswzbZlhl-103" value="&lt;font style=&quot;font-size: 18px;&quot;&gt;Update Experience&lt;/font&gt;" style="shape=parallelogram;perimeter=parallelogramPerimeter;whiteSpace=wrap;html=1;fixedSize=1;fontStyle=1;fillColor=#e3c800;fontColor=#000000;strokeColor=#B09500;" vertex="1" parent="1">
          <mxGeometry x="1130" y="490" width="150" height="55" as="geometry" />
        </mxCell>
        <mxCell id="npr50LHdcgnVswzbZlhl-108" style="edgeStyle=orthogonalEdgeStyle;rounded=0;orthogonalLoop=1;jettySize=auto;html=1;fontStyle=1" edge="1" parent="1" source="npr50LHdcgnVswzbZlhl-105" target="npr50LHdcgnVswzbZlhl-101">
          <mxGeometry relative="1" as="geometry" />
        </mxCell>
        <mxCell id="npr50LHdcgnVswzbZlhl-105" value="&lt;font style=&quot;font-size: 18px;&quot;&gt;Update Address&lt;/font&gt;" style="shape=parallelogram;perimeter=parallelogramPerimeter;whiteSpace=wrap;html=1;fixedSize=1;fontStyle=1;fillColor=#e3c800;fontColor=#000000;strokeColor=#B09500;" vertex="1" parent="1">
          <mxGeometry x="1320" y="485" width="120" height="55" as="geometry" />
        </mxCell>
        <mxCell id="npr50LHdcgnVswzbZlhl-110" value="&lt;font style=&quot;font-size: 18px;&quot;&gt;Enter ID&lt;/font&gt;" style="shape=parallelogram;perimeter=parallelogramPerimeter;whiteSpace=wrap;html=1;fixedSize=1;fontStyle=1;fillColor=#e6d0de;gradientColor=#d5739d;strokeColor=#996185;" vertex="1" parent="1">
          <mxGeometry x="-430" y="-213" width="120" height="60" as="geometry" />
        </mxCell>
        <mxCell id="npr50LHdcgnVswzbZlhl-111" value="&lt;font style=&quot;font-size: 18px;&quot;&gt;Enter Name&lt;/font&gt;" style="shape=parallelogram;perimeter=parallelogramPerimeter;whiteSpace=wrap;html=1;fixedSize=1;fontStyle=1;fillColor=#e6d0de;gradientColor=#d5739d;strokeColor=#996185;" vertex="1" parent="1">
          <mxGeometry x="-440" y="-103" width="120" height="60" as="geometry" />
        </mxCell>
        <mxCell id="npr50LHdcgnVswzbZlhl-112" value="&lt;font style=&quot;font-size: 18px;&quot;&gt;Enter Address&lt;/font&gt;" style="shape=parallelogram;perimeter=parallelogramPerimeter;whiteSpace=wrap;html=1;fixedSize=1;fontStyle=1;fillColor=#e6d0de;gradientColor=#d5739d;strokeColor=#996185;" vertex="1" parent="1">
          <mxGeometry x="-440" y="7" width="120" height="60" as="geometry" />
        </mxCell>
        <mxCell id="npr50LHdcgnVswzbZlhl-130" value="" style="edgeStyle=orthogonalEdgeStyle;rounded=0;orthogonalLoop=1;jettySize=auto;html=1;fontStyle=1" edge="1" parent="1" source="npr50LHdcgnVswzbZlhl-113" target="npr50LHdcgnVswzbZlhl-129">
          <mxGeometry relative="1" as="geometry" />
        </mxCell>
        <mxCell id="npr50LHdcgnVswzbZlhl-113" value="&lt;font style=&quot;font-size: 18px;&quot;&gt;Enter&amp;nbsp;&lt;/font&gt;&lt;div&gt;&lt;font size=&quot;3&quot;&gt;Department&amp;nbsp;&lt;/font&gt;&lt;/div&gt;" style="shape=parallelogram;perimeter=parallelogramPerimeter;whiteSpace=wrap;html=1;fixedSize=1;fontStyle=1;fillColor=#e6d0de;gradientColor=#d5739d;strokeColor=#996185;" vertex="1" parent="1">
          <mxGeometry x="-440" y="120" width="120" height="60" as="geometry" />
        </mxCell>
        <mxCell id="npr50LHdcgnVswzbZlhl-114" value="&lt;font style=&quot;font-size: 18px;&quot;&gt;Enter&amp;nbsp;&lt;/font&gt;&lt;div&gt;&lt;font size=&quot;3&quot;&gt;Experience&lt;/font&gt;&lt;/div&gt;" style="shape=parallelogram;perimeter=parallelogramPerimeter;whiteSpace=wrap;html=1;fixedSize=1;fontStyle=1;fillColor=#e6d0de;gradientColor=#d5739d;strokeColor=#996185;" vertex="1" parent="1">
          <mxGeometry x="-450" y="232" width="120" height="60" as="geometry" />
        </mxCell>
        <mxCell id="npr50LHdcgnVswzbZlhl-115" value="&lt;font style=&quot;font-size: 18px;&quot;&gt;Enter&amp;nbsp;&lt;/font&gt;&lt;div&gt;&lt;font size=&quot;3&quot;&gt;Password&lt;/font&gt;&lt;/div&gt;" style="shape=parallelogram;perimeter=parallelogramPerimeter;whiteSpace=wrap;html=1;fixedSize=1;fontStyle=1;fillColor=#e6d0de;gradientColor=#d5739d;strokeColor=#996185;" vertex="1" parent="1">
          <mxGeometry x="-450" y="337" width="120" height="60" as="geometry" />
        </mxCell>
        <mxCell id="npr50LHdcgnVswzbZlhl-116" value="&lt;font style=&quot;font-size: 18px;&quot;&gt;Enter&amp;nbsp;&lt;/font&gt;&lt;div&gt;&lt;font size=&quot;3&quot;&gt;Joining Date&lt;/font&gt;&lt;/div&gt;" style="shape=parallelogram;perimeter=parallelogramPerimeter;whiteSpace=wrap;html=1;fixedSize=1;fontStyle=1;fillColor=#e6d0de;gradientColor=#d5739d;strokeColor=#996185;" vertex="1" parent="1">
          <mxGeometry x="-450" y="447" width="120" height="60" as="geometry" />
        </mxCell>
        <mxCell id="npr50LHdcgnVswzbZlhl-117" value="&lt;font style=&quot;font-size: 18px;&quot;&gt;Enter&amp;nbsp;&lt;/font&gt;&lt;div&gt;&lt;font size=&quot;3&quot;&gt;Salary&lt;/font&gt;&lt;/div&gt;" style="shape=parallelogram;perimeter=parallelogramPerimeter;whiteSpace=wrap;html=1;fixedSize=1;fontStyle=1;fillColor=#e6d0de;gradientColor=#d5739d;strokeColor=#996185;" vertex="1" parent="1">
          <mxGeometry x="-460" y="567" width="120" height="60" as="geometry" />
        </mxCell>
        <mxCell id="npr50LHdcgnVswzbZlhl-132" value="" style="edgeStyle=orthogonalEdgeStyle;rounded=0;orthogonalLoop=1;jettySize=auto;html=1;fontStyle=1" edge="1" parent="1" target="npr50LHdcgnVswzbZlhl-131">
          <mxGeometry relative="1" as="geometry">
            <mxPoint x="-680" y="130" as="sourcePoint" />
          </mxGeometry>
        </mxCell>
        <mxCell id="npr50LHdcgnVswzbZlhl-133" value="" style="edgeStyle=orthogonalEdgeStyle;rounded=0;orthogonalLoop=1;jettySize=auto;html=1;fontStyle=1" edge="1" parent="1" target="npr50LHdcgnVswzbZlhl-131">
          <mxGeometry relative="1" as="geometry">
            <mxPoint x="-680" y="130" as="sourcePoint" />
          </mxGeometry>
        </mxCell>
        <mxCell id="npr50LHdcgnVswzbZlhl-141" style="edgeStyle=orthogonalEdgeStyle;rounded=0;orthogonalLoop=1;jettySize=auto;html=1;exitX=0;exitY=0.5;exitDx=0;exitDy=0;entryX=1;entryY=0.5;entryDx=0;entryDy=0;fontStyle=1" edge="1" parent="1" target="npr50LHdcgnVswzbZlhl-139">
          <mxGeometry relative="1" as="geometry">
            <mxPoint x="-680" y="130" as="sourcePoint" />
          </mxGeometry>
        </mxCell>
        <mxCell id="npr50LHdcgnVswzbZlhl-142" style="edgeStyle=orthogonalEdgeStyle;rounded=0;orthogonalLoop=1;jettySize=auto;html=1;entryX=1;entryY=0.5;entryDx=0;entryDy=0;fontStyle=1" edge="1" parent="1" target="npr50LHdcgnVswzbZlhl-137">
          <mxGeometry relative="1" as="geometry">
            <mxPoint x="-679.8051948051952" y="129.85714285714266" as="sourcePoint" />
          </mxGeometry>
        </mxCell>
        <mxCell id="npr50LHdcgnVswzbZlhl-143" style="edgeStyle=orthogonalEdgeStyle;rounded=0;orthogonalLoop=1;jettySize=auto;html=1;exitX=0;exitY=0.5;exitDx=0;exitDy=0;entryX=1;entryY=0.5;entryDx=0;entryDy=0;fontStyle=1" edge="1" parent="1" target="npr50LHdcgnVswzbZlhl-134">
          <mxGeometry relative="1" as="geometry">
            <mxPoint x="-680" y="130" as="sourcePoint" />
          </mxGeometry>
        </mxCell>
        <mxCell id="npr50LHdcgnVswzbZlhl-144" style="edgeStyle=orthogonalEdgeStyle;rounded=0;orthogonalLoop=1;jettySize=auto;html=1;entryX=1;entryY=0.5;entryDx=0;entryDy=0;fontStyle=1" edge="1" parent="1" target="npr50LHdcgnVswzbZlhl-135">
          <mxGeometry relative="1" as="geometry">
            <mxPoint x="-679.8051948051952" y="129.85714285714266" as="sourcePoint" />
          </mxGeometry>
        </mxCell>
        <mxCell id="npr50LHdcgnVswzbZlhl-145" style="edgeStyle=orthogonalEdgeStyle;rounded=0;orthogonalLoop=1;jettySize=auto;html=1;entryX=1;entryY=0.5;entryDx=0;entryDy=0;fontStyle=1" edge="1" parent="1" target="npr50LHdcgnVswzbZlhl-136">
          <mxGeometry relative="1" as="geometry">
            <mxPoint x="-679.8051948051952" y="129.85714285714266" as="sourcePoint" />
          </mxGeometry>
        </mxCell>
        <mxCell id="npr50LHdcgnVswzbZlhl-146" style="edgeStyle=orthogonalEdgeStyle;rounded=0;orthogonalLoop=1;jettySize=auto;html=1;exitX=0;exitY=0.5;exitDx=0;exitDy=0;entryX=1;entryY=0.5;entryDx=0;entryDy=0;fontStyle=1" edge="1" parent="1" target="npr50LHdcgnVswzbZlhl-138">
          <mxGeometry relative="1" as="geometry">
            <mxPoint x="-680" y="130" as="sourcePoint" />
          </mxGeometry>
        </mxCell>
        <mxCell id="npr50LHdcgnVswzbZlhl-147" style="edgeStyle=orthogonalEdgeStyle;rounded=0;orthogonalLoop=1;jettySize=auto;html=1;entryX=1;entryY=0.5;entryDx=0;entryDy=0;fontStyle=1" edge="1" parent="1" target="npr50LHdcgnVswzbZlhl-140">
          <mxGeometry relative="1" as="geometry">
            <mxPoint x="-679.8051948051952" y="129.85714285714266" as="sourcePoint" />
          </mxGeometry>
        </mxCell>
        <mxCell id="npr50LHdcgnVswzbZlhl-149" style="edgeStyle=orthogonalEdgeStyle;rounded=0;orthogonalLoop=1;jettySize=auto;html=1;entryX=1;entryY=0.5;entryDx=0;entryDy=0;fontStyle=1" edge="1" parent="1" target="npr50LHdcgnVswzbZlhl-148">
          <mxGeometry relative="1" as="geometry">
            <mxPoint x="-679.8051948051952" y="129.85714285714266" as="sourcePoint" />
          </mxGeometry>
        </mxCell>
        <mxCell id="npr50LHdcgnVswzbZlhl-129" value="&lt;font style=&quot;font-size: 18px;&quot;&gt;Department&lt;/font&gt;&lt;div&gt;&lt;font style=&quot;font-size: 18px;&quot;&gt;&amp;nbsp;list&lt;/font&gt;&lt;/div&gt;" style="rhombus;whiteSpace=wrap;html=1;fontStyle=1;fillColor=#fff2cc;gradientColor=#ffd966;strokeColor=#d6b656;" vertex="1" parent="1">
          <mxGeometry x="-680" y="95" width="150" height="110" as="geometry" />
        </mxCell>
        <mxCell id="npr50LHdcgnVswzbZlhl-131" value="&lt;font style=&quot;font-size: 18px;&quot;&gt;Marketing&lt;/font&gt;" style="whiteSpace=wrap;html=1;fontStyle=1;fillColor=#d5e8d4;gradientColor=#97d077;strokeColor=#82b366;" vertex="1" parent="1">
          <mxGeometry x="-895" y="100" width="120" height="60" as="geometry" />
        </mxCell>
        <mxCell id="npr50LHdcgnVswzbZlhl-134" value="&lt;font style=&quot;font-size: 18px;&quot;&gt;Human Resource&lt;/font&gt;" style="whiteSpace=wrap;html=1;fontStyle=1;fillColor=#d5e8d4;gradientColor=#97d077;strokeColor=#82b366;" vertex="1" parent="1">
          <mxGeometry x="-895" y="-10" width="120" height="60" as="geometry" />
        </mxCell>
        <mxCell id="npr50LHdcgnVswzbZlhl-135" value="&lt;font style=&quot;font-size: 18px;&quot;&gt;Operations&lt;/font&gt;" style="whiteSpace=wrap;html=1;fontStyle=1;fillColor=#d5e8d4;gradientColor=#97d077;strokeColor=#82b366;" vertex="1" parent="1">
          <mxGeometry x="-899" y="212" width="120" height="60" as="geometry" />
        </mxCell>
        <mxCell id="npr50LHdcgnVswzbZlhl-136" value="&lt;font style=&quot;font-size: 18px;&quot;&gt;Sales&lt;/font&gt;" style="whiteSpace=wrap;html=1;fontStyle=1;fillColor=#d5e8d4;gradientColor=#97d077;strokeColor=#82b366;" vertex="1" parent="1">
          <mxGeometry x="-901" y="320" width="120" height="60" as="geometry" />
        </mxCell>
        <mxCell id="npr50LHdcgnVswzbZlhl-137" value="&lt;font style=&quot;font-size: 18px;&quot;&gt;Finance&amp;nbsp;&lt;/font&gt;" style="whiteSpace=wrap;html=1;fontStyle=1;fillColor=#d5e8d4;gradientColor=#97d077;strokeColor=#82b366;" vertex="1" parent="1">
          <mxGeometry x="-900" y="-130" width="120" height="60" as="geometry" />
        </mxCell>
        <mxCell id="npr50LHdcgnVswzbZlhl-138" value="&lt;font style=&quot;font-size: 18px;&quot;&gt;Research&lt;/font&gt;" style="whiteSpace=wrap;html=1;fontStyle=1;fillColor=#d5e8d4;gradientColor=#97d077;strokeColor=#82b366;" vertex="1" parent="1">
          <mxGeometry x="-899" y="427" width="120" height="60" as="geometry" />
        </mxCell>
        <mxCell id="npr50LHdcgnVswzbZlhl-139" value="&lt;font style=&quot;font-size: 18px;&quot;&gt;Engineering&lt;/font&gt;" style="whiteSpace=wrap;html=1;fontStyle=1;fillColor=#d5e8d4;gradientColor=#97d077;strokeColor=#82b366;" vertex="1" parent="1">
          <mxGeometry x="-897" y="-242" width="121" height="60" as="geometry" />
        </mxCell>
        <mxCell id="npr50LHdcgnVswzbZlhl-140" value="&lt;font style=&quot;font-size: 18px;&quot;&gt;Customer Support&lt;/font&gt;" style="whiteSpace=wrap;html=1;fontStyle=1;fillColor=#d5e8d4;gradientColor=#97d077;strokeColor=#82b366;" vertex="1" parent="1">
          <mxGeometry x="-901" y="545" width="120" height="60" as="geometry" />
        </mxCell>
        <mxCell id="npr50LHdcgnVswzbZlhl-150" style="edgeStyle=orthogonalEdgeStyle;rounded=0;orthogonalLoop=1;jettySize=auto;html=1;entryX=0;entryY=0.5;entryDx=0;entryDy=0;fontStyle=1" edge="1" parent="1" source="npr50LHdcgnVswzbZlhl-148" target="npr50LHdcgnVswzbZlhl-15">
          <mxGeometry relative="1" as="geometry">
            <mxPoint x="-840" y="750" as="sourcePoint" />
            <Array as="points">
              <mxPoint x="-841" y="733" />
              <mxPoint x="-240" y="733" />
              <mxPoint x="-240" y="15" />
            </Array>
          </mxGeometry>
        </mxCell>
        <mxCell id="npr50LHdcgnVswzbZlhl-148" value="&lt;font style=&quot;font-size: 18px;&quot;&gt;Exit&lt;/font&gt;" style="whiteSpace=wrap;html=1;fontStyle=1;fillColor=#d5e8d4;gradientColor=#97d077;strokeColor=#82b366;" vertex="1" parent="1">
          <mxGeometry x="-901" y="665" width="120" height="60" as="geometry" />
        </mxCell>
        <mxCell id="npr50LHdcgnVswzbZlhl-151" value="&lt;font style=&quot;font-size: 22px;&quot;&gt;End&lt;/font&gt;" style="ellipse;whiteSpace=wrap;html=1;fillColor=#dae8fc;strokeColor=#6c8ebf;fontStyle=1" vertex="1" parent="1">
          <mxGeometry x="770" y="-233" width="120" height="80" as="geometry" />
        </mxCell>
      </root>
    </mxGraphModel>
  </diagram>
</mxfile>
